<svg width="1584" height="396" viewBox="0 0 1584 396" fill="none" xmlns="http://www.w3.org/2000/svg">
<g clip-path="url(#clip0_821_2)">
<rect width="1584" height="396" fill="#0F0F0F"/>
<g opacity="0.25" filter="url(#filter0_f_821_2)">
<path d="M-298.871 222.479C-15.4778 306.131 395.714 427.973 619.78 495.766C652.637 505.707 646.367 545 612.04 545H-747C-764.121 545 -778 531.121 -778 514V-128C-778 -145.121 -764.121 -159 -747 -159H566.185C601.909 -159 609.294 -108.538 575.068 -98.3002L-298.785 163.082C-328.335 171.921 -328.453 213.746 -298.871 222.479Z" fill="#651FFF"/>
</g>
<g opacity="0.25" filter="url(#filter1_f_821_2)">
<path d="M1882.87 163.521C1599.48 79.8688 1188.29 -41.9726 964.22 -109.766C931.363 -119.707 937.633 -159 971.96 -159L2331 -159C2348.12 -159 2362 -145.121 2362 -128L2362 514C2362 531.121 2348.12 545 2331 545L1017.82 545C982.091 545 974.706 494.538 1008.93 484.3L1882.78 222.918C1912.33 214.079 1912.45 172.253 1882.87 163.521Z" fill="#FF1744"/>
</g>
<path d="M609.743 255H566.582V133.246H610.1C622.346 133.246 632.889 135.684 641.727 140.559C650.565 145.394 657.362 152.35 662.118 161.426C666.914 170.502 669.312 181.361 669.312 194.004C669.312 206.687 666.914 217.586 662.118 226.702C657.362 235.817 650.526 242.813 641.608 247.688C632.73 252.563 622.108 255 609.743 255ZM592.324 232.944H608.673C616.282 232.944 622.683 231.596 627.875 228.901C633.107 226.167 637.03 221.946 639.646 216.239C642.302 210.492 643.629 203.08 643.629 194.004C643.629 185.007 642.302 177.655 639.646 171.948C637.03 166.241 633.127 162.04 627.935 159.345C622.743 156.65 616.342 155.302 608.732 155.302H592.324V232.944ZM702.5 255H674.915L716.946 133.246H750.119L792.091 255H764.506L734.008 161.069H733.057L702.5 255ZM700.776 207.143H765.933V227.237H700.776V207.143ZM870.015 168.262C869.54 163.467 867.499 159.741 863.892 157.086C860.285 154.43 855.391 153.103 849.208 153.103C845.007 153.103 841.459 153.697 838.566 154.886C835.673 156.035 833.454 157.641 831.908 159.702C830.402 161.762 829.649 164.101 829.649 166.717C829.569 168.896 830.025 170.799 831.016 172.424C832.047 174.049 833.454 175.456 835.237 176.645C837.021 177.794 839.081 178.805 841.42 179.677C843.758 180.509 846.255 181.222 848.911 181.817L859.849 184.433C865.16 185.622 870.035 187.207 874.474 189.189C878.913 191.17 882.757 193.608 886.007 196.501C889.257 199.394 891.774 202.803 893.558 206.727C895.381 210.65 896.312 215.149 896.352 220.222C896.312 227.673 894.41 234.133 890.644 239.602C886.919 245.032 881.529 249.253 874.474 252.265C867.459 255.238 858.997 256.724 849.089 256.724C839.26 256.724 830.699 255.218 823.406 252.206C816.154 249.194 810.486 244.735 806.404 238.83C802.361 232.885 800.241 225.533 800.043 216.774H824.952C825.23 220.856 826.399 224.264 828.46 226.999C830.56 229.694 833.354 231.735 836.842 233.122C840.37 234.47 844.353 235.144 848.792 235.144C853.151 235.144 856.936 234.51 860.147 233.241C863.397 231.973 865.913 230.209 867.697 227.95C869.48 225.691 870.372 223.095 870.372 220.162C870.372 217.428 869.56 215.129 867.935 213.266C866.349 211.403 864.011 209.818 860.919 208.51C857.868 207.202 854.122 206.013 849.683 204.943L836.426 201.614C826.161 199.117 818.056 195.213 812.111 189.902C806.166 184.591 803.213 177.437 803.253 168.441C803.213 161.069 805.175 154.628 809.138 149.119C813.141 143.61 818.631 139.31 825.606 136.219C832.582 133.127 840.508 131.582 849.386 131.582C858.423 131.582 866.31 133.127 873.047 136.219C879.825 139.31 885.096 143.61 888.861 149.119C892.626 154.628 894.568 161.009 894.687 168.262H870.015ZM913.667 255V133.246H939.408V183.482H991.665V133.246H1017.35V255H991.665V204.705H939.408V255H913.667Z" fill="url(#paint0_linear_821_2)"/>
<path d="M565.603 294.879L569.402 271.998H571.402L569.927 280.991H570.106C570.411 280.478 570.817 279.949 571.324 279.405C571.837 278.861 572.471 278.407 573.223 278.042C573.975 277.67 574.876 277.483 575.927 277.483C577.334 277.483 578.507 277.856 579.446 278.601C580.392 279.338 581.051 280.373 581.424 281.707C581.796 283.032 581.837 284.578 581.546 286.343C581.248 288.116 580.694 289.669 579.882 291.002C579.07 292.335 578.072 293.374 576.887 294.119C575.703 294.864 574.411 295.236 573.011 295.236C571.968 295.236 571.126 295.05 570.486 294.678C569.853 294.305 569.368 293.847 569.033 293.304C568.705 292.752 568.467 292.216 568.318 291.695H568.072L567.536 294.879H565.603ZM569 286.31C568.776 287.695 568.776 288.924 569 289.997C569.231 291.062 569.681 291.9 570.352 292.51C571.029 293.114 571.923 293.415 573.033 293.415C574.173 293.415 575.189 293.102 576.083 292.477C576.984 291.844 577.729 290.991 578.318 289.918C578.913 288.846 579.323 287.643 579.547 286.31C579.763 284.991 579.759 283.803 579.535 282.746C579.312 281.688 578.861 280.85 578.183 280.232C577.506 279.606 576.593 279.293 575.446 279.293C574.329 279.293 573.323 279.595 572.43 280.198C571.543 280.794 570.806 281.621 570.217 282.679C569.629 283.729 569.223 284.939 569 286.31ZM584.205 301.314C583.811 301.314 583.446 301.277 583.111 301.203C582.783 301.128 582.526 301.046 582.34 300.957L583.178 299.203C583.803 299.419 584.377 299.486 584.898 299.404C585.427 299.329 585.93 299.076 586.406 298.644C586.883 298.212 587.352 297.568 587.814 296.711L588.753 294.968L585.356 277.718H587.423L590.105 292.287H590.25L597.769 277.718H600.015L589.457 297.571C589.002 298.428 588.499 299.132 587.948 299.683C587.405 300.234 586.816 300.644 586.183 300.912C585.557 301.18 584.898 301.314 584.205 301.314ZM610.307 294.879L614.106 271.998H621.491C623.115 271.998 624.422 272.307 625.412 272.925C626.403 273.543 627.085 274.385 627.457 275.45C627.837 276.515 627.915 277.718 627.692 279.059C627.476 280.384 626.999 281.584 626.262 282.656C625.532 283.721 624.567 284.567 623.368 285.192C622.176 285.818 620.776 286.131 619.167 286.131H613.357L613.67 284.254H619.424C620.623 284.254 621.655 284.03 622.519 283.583C623.39 283.129 624.087 282.511 624.608 281.729C625.129 280.939 625.472 280.049 625.636 279.059C625.8 278.053 625.748 277.159 625.48 276.377C625.219 275.595 624.727 274.984 624.005 274.545C623.29 274.098 622.329 273.875 621.122 273.875H615.882L612.397 294.879H610.307ZM645.221 277.841C645.274 276.5 644.875 275.45 644.026 274.69C643.184 273.93 642.004 273.551 640.484 273.551C639.427 273.551 638.458 273.737 637.579 274.109C636.708 274.474 635.989 274.977 635.423 275.617C634.864 276.258 634.518 276.988 634.384 277.807C634.287 278.411 634.332 278.939 634.518 279.394C634.704 279.841 634.991 280.228 635.378 280.556C635.766 280.883 636.209 281.163 636.708 281.394C637.214 281.625 637.728 281.818 638.25 281.975L640.562 282.667C641.248 282.868 641.929 283.125 642.607 283.438C643.285 283.751 643.888 284.142 644.417 284.611C644.946 285.081 645.337 285.658 645.59 286.343C645.851 287.028 645.903 287.848 645.746 288.801C645.538 290.037 645.039 291.144 644.249 292.119C643.467 293.088 642.439 293.855 641.166 294.421C639.892 294.987 638.421 295.27 636.753 295.27C635.196 295.27 633.885 295.013 632.82 294.499C631.755 293.978 630.969 293.259 630.462 292.343C629.956 291.427 629.762 290.365 629.881 289.159H632.027C631.945 290.06 632.112 290.823 632.529 291.449C632.954 292.075 633.557 292.551 634.339 292.879C635.129 293.199 636.038 293.359 637.065 293.359C638.205 293.359 639.252 293.17 640.205 292.79C641.158 292.402 641.944 291.866 642.562 291.181C643.188 290.488 643.575 289.684 643.724 288.768C643.858 287.993 643.765 287.341 643.445 286.812C643.132 286.284 642.644 285.84 641.981 285.483C641.326 285.118 640.544 284.798 639.635 284.522L637.021 283.718C635.315 283.196 634.045 282.463 633.211 281.517C632.384 280.571 632.09 279.364 632.328 277.897C632.537 276.66 633.047 275.577 633.859 274.645C634.678 273.707 635.695 272.977 636.909 272.456C638.123 271.934 639.434 271.674 640.842 271.674C642.264 271.674 643.475 271.938 644.473 272.467C645.478 272.996 646.223 273.726 646.707 274.657C647.199 275.58 647.381 276.642 647.255 277.841H645.221ZM651.858 273.875L652.171 271.998H668.762L668.449 273.875H661.198L657.712 294.879H655.623L659.109 273.875H651.858ZM674.256 295.192C672.856 295.192 671.671 294.92 670.703 294.376C669.742 293.825 669.05 293.076 668.625 292.13C668.208 291.185 668.1 290.116 668.301 288.924C668.443 288.06 668.748 287.282 669.217 286.589C669.686 285.889 670.308 285.222 671.083 284.589C671.865 283.956 672.785 283.304 673.843 282.634L677.563 280.165C678.457 279.606 679.153 279.051 679.652 278.5C680.159 277.949 680.475 277.275 680.602 276.478C680.721 275.711 680.55 275.025 680.088 274.422C679.634 273.811 678.948 273.506 678.032 273.506C677.399 273.506 676.796 273.666 676.222 273.986C675.656 274.307 675.18 274.724 674.792 275.238C674.405 275.744 674.163 276.277 674.066 276.835C673.984 277.357 674.036 277.878 674.222 278.399C674.409 278.921 674.684 279.472 675.049 280.053C675.414 280.627 675.816 281.263 676.256 281.963L684.557 294.879H682.144L674.882 283.695C674.271 282.749 673.731 281.908 673.262 281.17C672.792 280.433 672.442 279.722 672.211 279.036C671.988 278.344 671.94 277.602 672.066 276.813C672.23 275.837 672.599 274.969 673.172 274.21C673.753 273.443 674.479 272.839 675.351 272.4C676.23 271.96 677.187 271.741 678.222 271.741C679.28 271.741 680.162 271.957 680.87 272.389C681.578 272.821 682.084 273.394 682.39 274.109C682.702 274.824 682.784 275.614 682.635 276.478C682.464 277.513 682.043 278.433 681.373 279.237C680.71 280.034 679.809 280.813 678.669 281.572L674.021 284.678C672.733 285.535 671.813 286.328 671.262 287.058C670.718 287.788 670.405 288.41 670.323 288.924C670.197 289.728 670.279 290.473 670.569 291.158C670.867 291.836 671.347 292.384 672.01 292.801C672.673 293.21 673.489 293.412 674.457 293.404C675.403 293.397 676.33 293.207 677.239 292.834C678.155 292.454 679.004 291.914 679.786 291.214C680.576 290.514 681.254 289.676 681.82 288.701C682.393 287.725 682.814 286.637 683.082 285.438L685.015 285.46C684.777 286.689 684.442 287.725 684.01 288.566C683.578 289.408 683.127 290.105 682.658 290.656C682.196 291.207 681.794 291.661 681.451 292.019C681.347 292.13 681.235 292.246 681.116 292.365C680.997 292.477 680.881 292.585 680.77 292.689C679.883 293.501 678.852 294.123 677.675 294.555C676.498 294.979 675.358 295.192 674.256 295.192ZM688.132 294.879L691.931 271.998H699.651C701.141 271.998 702.34 272.258 703.249 272.78C704.157 273.301 704.783 274.012 705.126 274.914C705.476 275.815 705.55 276.839 705.349 277.986C705.193 278.939 704.898 279.755 704.466 280.433C704.034 281.103 703.509 281.651 702.891 282.075C702.28 282.492 701.621 282.794 700.914 282.98L700.88 283.159C701.61 283.211 702.284 283.472 702.902 283.941C703.52 284.403 703.982 285.051 704.288 285.885C704.6 286.719 704.664 287.717 704.478 288.879C704.284 290.034 703.852 291.065 703.182 291.974C702.519 292.875 701.61 293.587 700.455 294.108C699.308 294.622 697.916 294.879 696.277 294.879H688.132ZM690.534 293.002H696.59C698.355 293.002 699.726 292.611 700.701 291.829C701.677 291.047 702.269 290.064 702.478 288.879C702.619 288.008 702.537 287.218 702.232 286.511C701.927 285.796 701.427 285.23 700.735 284.812C700.042 284.395 699.182 284.187 698.154 284.187H692.009L690.534 293.002ZM692.322 282.332H698.143C699.044 282.332 699.863 282.146 700.601 281.774C701.338 281.401 701.949 280.887 702.433 280.232C702.917 279.576 703.226 278.828 703.36 277.986C703.569 276.772 703.342 275.785 702.679 275.025C702.023 274.258 700.91 273.875 699.338 273.875H693.707L692.322 282.332Z" fill="#6F6F6F"/>
</g>
<defs>
<filter id="filter0_f_821_2" x="-960.8" y="-341.8" width="1784.98" height="1069.6" filterUnits="userSpaceOnUse" color-interpolation-filters="sRGB">
<feFlood flood-opacity="0" result="BackgroundImageFix"/>
<feBlend mode="normal" in="SourceGraphic" in2="BackgroundImageFix" result="shape"/>
<feGaussianBlur stdDeviation="91.4" result="effect1_foregroundBlur_821_2"/>
</filter>
<filter id="filter1_f_821_2" x="759.824" y="-341.8" width="1784.98" height="1069.6" filterUnits="userSpaceOnUse" color-interpolation-filters="sRGB">
<feFlood flood-opacity="0" result="BackgroundImageFix"/>
<feBlend mode="normal" in="SourceGraphic" in2="BackgroundImageFix" result="shape"/>
<feGaussianBlur stdDeviation="91.4" result="effect1_foregroundBlur_821_2"/>
</filter>
<linearGradient id="paint0_linear_821_2" x1="792" y1="93" x2="1028.67" y2="254.948" gradientUnits="userSpaceOnUse">
<stop stop-color="white"/>
<stop offset="1" stop-color="#D7C4FF"/>
</linearGradient>
<clipPath id="clip0_821_2">
<rect width="1584" height="396" fill="white"/>
</clipPath>
</defs>
</svg>
