<svg width="197" height="260" viewBox="0 0 197 260" fill="none" xmlns="http://www.w3.org/2000/svg">
<path d="M83.162 210.777C78.6896 215.263 72.7263 217.766 66.3834 217.851C60.0685 217.921 54.0631 215.558 49.4781 211.213C49.3234 211.072 49.1828 210.932 49.0281 210.777C48.8733 210.622 48.7186 210.468 48.5639 210.299C44.2462 205.756 41.8834 199.751 41.9678 193.423C42.0381 187.081 44.5416 181.118 49.0281 176.646L96.8888 128.789C105.651 120.014 110.278 107.892 109.561 95.5021C108.984 85.3486 104.891 75.7717 97.9858 68.3464L19.3524 146.973C14.008 152.317 9.66216 158.448 6.42737 165.213C2.22215 174.03 0 183.888 0 193.704C0 203.534 2.22215 213.393 6.42737 222.21C9.66216 228.974 14.008 235.106 19.3524 240.45C24.6969 245.78 30.8289 250.139 37.5938 253.36C46.4121 257.579 56.2711 259.801 66.1021 259.801C75.9189 259.801 85.778 257.579 94.5963 253.36C101.361 250.139 107.493 245.78 112.838 240.45L160.698 192.593C177.294 175.985 177.66 149.209 161.795 132.15L83.162 210.777Z" fill="white"/>
<path d="M189.572 37.6046C186.337 30.8402 181.991 24.6947 176.647 19.3648C171.302 14.0209 165.17 9.67537 158.405 6.44087C149.587 2.22196 139.728 0 129.911 0C120.08 0 110.221 2.22196 101.403 6.44087C94.638 9.67537 88.506 14.0209 83.1616 19.3648L35.315 67.2213C18.7051 83.8157 18.3394 110.606 34.2039 127.65L112.837 49.0238C117.324 44.5517 123.273 42.0344 129.616 41.9641C135.945 41.8938 141.95 44.2423 146.521 48.6019C146.662 48.7284 146.816 48.8691 146.971 49.0238C147.126 49.1785 147.281 49.3331 147.435 49.5019C151.767 54.0583 154.116 60.0633 154.046 66.3916C153.975 72.72 151.458 78.6827 146.971 83.1688L99.1105 131.025C90.3484 139.787 85.7213 151.923 86.4386 164.299C87.0152 174.452 91.1079 184.029 98.0275 191.454L176.647 112.842C181.991 107.498 186.337 101.352 189.572 94.6021C193.777 85.7846 196.013 75.9264 196.013 66.0963C196.013 56.2662 193.777 46.4221 189.572 37.6046Z" fill="white"/>
</svg>
