<svg xmlns="http://www.w3.org/2000/svg" xmlns:xlink="http://www.w3.org/1999/xlink" width="300" zoomAndPan="magnify" viewBox="0 0 224.87999 97.5" height="130" preserveAspectRatio="xMidYMid meet" version="1.2"><g id="24a19704d7"><path style=" stroke:none;fill-rule:nonzero;fill:#ffffff;fill-opacity:1;" d="M 56.296875 65.460938 L 52.175781 69.582031 C 50.933594 70.828125 49.277344 71.523438 47.515625 71.546875 C 45.761719 71.566406 44.09375 70.910156 42.820312 69.703125 C 42.777344 69.664062 42.738281 69.625 42.695312 69.582031 C 42.652344 69.539062 42.609375 69.496094 42.566406 69.449219 C 41.367188 68.1875 40.710938 66.519531 40.734375 64.761719 C 40.753906 63 41.449219 61.34375 42.695312 60.101562 L 55.988281 46.808594 C 58.421875 44.371094 59.707031 41.003906 59.507812 37.5625 C 59.347656 34.742188 58.210938 32.082031 56.292969 30.019531 L 34.453125 51.859375 C 32.96875 53.34375 31.761719 55.046875 30.863281 56.925781 C 29.695312 59.375 29.078125 62.113281 29.078125 64.839844 C 29.078125 67.570312 29.695312 70.308594 30.863281 72.757812 C 31.761719 74.636719 32.96875 76.339844 34.453125 77.824219 C 35.9375 79.304688 37.640625 80.515625 39.519531 81.410156 C 41.96875 82.582031 44.707031 83.199219 47.4375 83.199219 C 50.164062 83.199219 52.902344 82.582031 55.351562 81.410156 C 57.230469 80.515625 58.933594 79.304688 60.417969 77.824219 L 73.710938 64.53125 C 78.320312 59.917969 78.421875 52.480469 74.015625 47.742188 L 56.296875 65.460938 "/><path style=" stroke:none;fill-rule:nonzero;fill:#ffffff;fill-opacity:1;" d="M 81.730469 21.480469 C 80.832031 19.601562 79.625 17.894531 78.140625 16.414062 C 76.65625 14.929688 74.953125 13.722656 73.074219 12.824219 C 70.625 11.652344 67.886719 11.035156 65.160156 11.035156 C 62.429688 11.035156 59.691406 11.652344 57.242188 12.824219 C 55.363281 13.722656 53.660156 14.929688 52.175781 16.414062 L 38.886719 29.707031 C 34.273438 34.316406 34.171875 41.757812 38.578125 46.492188 L 60.417969 24.652344 C 61.664062 23.410156 63.316406 22.710938 65.078125 22.691406 C 66.835938 22.671875 68.503906 23.324219 69.773438 24.535156 C 69.8125 24.570312 69.855469 24.609375 69.898438 24.652344 C 69.941406 24.695312 69.984375 24.738281 70.027344 24.785156 C 71.230469 26.050781 71.882812 27.71875 71.863281 29.476562 C 71.84375 31.234375 71.144531 32.890625 69.898438 34.136719 L 56.605469 47.429688 C 54.171875 49.863281 52.886719 53.234375 53.085938 56.671875 C 53.246094 59.492188 54.382812 62.152344 56.304688 64.214844 L 74.019531 46.496094 L 78.140625 42.378906 C 79.625 40.894531 80.832031 39.1875 81.730469 37.3125 C 82.898438 34.863281 83.519531 32.125 83.519531 29.394531 C 83.519531 26.664062 82.898438 23.929688 81.730469 21.480469 "/><path style=" stroke:none;fill-rule:nonzero;fill:#ffffff;fill-opacity:1;" d="M 120.402344 76.21875 C 119.941406 75.9375 119.441406 75.789062 118.90625 75.761719 L 118.90625 75.640625 C 119.390625 75.53125 119.824219 75.34375 120.199219 75.082031 C 120.578125 74.820312 120.871094 74.484375 121.089844 74.074219 C 121.300781 73.660156 121.410156 73.183594 121.410156 72.644531 C 121.410156 71.945312 121.238281 71.328125 120.890625 70.789062 C 120.546875 70.25 120.03125 69.828125 119.347656 69.523438 C 118.660156 69.21875 117.808594 69.066406 116.792969 69.066406 L 111.253906 69.066406 L 111.253906 82.984375 L 117.140625 82.984375 C 118.191406 82.984375 119.078125 82.820312 119.789062 82.484375 C 120.503906 82.152344 121.039062 81.695312 121.402344 81.113281 C 121.761719 80.53125 121.941406 79.867188 121.941406 79.125 C 121.941406 78.449219 121.800781 77.863281 121.519531 77.371094 C 121.234375 76.878906 120.863281 76.492188 120.402344 76.21875 Z M 114.105469 71.371094 L 116.457031 71.371094 C 117.117188 71.371094 117.628906 71.53125 117.992188 71.847656 C 118.351562 72.167969 118.53125 72.582031 118.53125 73.101562 C 118.53125 73.46875 118.441406 73.789062 118.261719 74.058594 C 118.082031 74.328125 117.832031 74.535156 117.515625 74.679688 C 117.195312 74.824219 116.832031 74.894531 116.421875 74.894531 L 114.105469 74.894531 Z M 118.425781 80.179688 C 118.035156 80.5 117.433594 80.660156 116.617188 80.660156 L 114.105469 80.660156 L 114.105469 76.894531 L 116.683594 76.894531 C 117.164062 76.894531 117.578125 76.976562 117.925781 77.144531 C 118.273438 77.316406 118.542969 77.546875 118.726562 77.847656 C 118.914062 78.144531 119.007812 78.492188 119.007812 78.882812 C 119.007812 79.425781 118.8125 79.855469 118.425781 80.179688 "/><path style=" stroke:none;fill-rule:nonzero;fill:#ffffff;fill-opacity:1;" d="M 178.394531 77.015625 L 176.527344 76.640625 C 176.058594 76.546875 175.722656 76.414062 175.519531 76.234375 C 175.3125 76.058594 175.210938 75.839844 175.210938 75.574219 C 175.210938 75.265625 175.359375 75.011719 175.664062 74.816406 C 175.964844 74.617188 176.347656 74.519531 176.816406 74.519531 C 177.320312 74.519531 177.722656 74.636719 178.027344 74.871094 C 178.328125 75.105469 178.523438 75.40625 178.609375 75.773438 L 181.105469 75.425781 C 181.003906 74.835938 180.769531 74.320312 180.398438 73.886719 C 180.027344 73.449219 179.539062 73.113281 178.929688 72.875 C 178.316406 72.640625 177.59375 72.519531 176.761719 72.519531 C 175.886719 72.519531 175.128906 72.652344 174.476562 72.914062 C 173.824219 73.175781 173.320312 73.546875 172.960938 74.023438 C 172.605469 74.503906 172.425781 75.070312 172.425781 75.726562 C 172.425781 76.503906 172.675781 77.140625 173.171875 77.632812 C 173.671875 78.125 174.417969 78.472656 175.414062 78.679688 L 177.199219 79.03125 C 177.640625 79.125 177.972656 79.257812 178.195312 79.429688 C 178.417969 79.601562 178.527344 79.820312 178.527344 80.089844 C 178.527344 80.398438 178.375 80.65625 178.066406 80.859375 C 177.761719 81.0625 177.347656 81.164062 176.816406 81.164062 C 176.257812 81.164062 175.808594 81.042969 175.472656 80.800781 C 175.136719 80.554688 174.90625 80.199219 174.789062 79.726562 L 172.164062 80.082031 C 172.269531 80.734375 172.527344 81.292969 172.933594 81.761719 C 173.34375 82.226562 173.871094 82.585938 174.523438 82.832031 C 175.175781 83.078125 175.921875 83.199219 176.761719 83.199219 C 177.664062 83.199219 178.460938 83.058594 179.15625 82.773438 C 179.851562 82.492188 180.394531 82.097656 180.785156 81.589844 C 181.179688 81.082031 181.375 80.488281 181.375 79.808594 C 181.375 79.066406 181.132812 78.464844 180.640625 78.003906 C 180.152344 77.546875 179.40625 77.214844 178.394531 77.015625 "/><path style=" stroke:none;fill-rule:nonzero;fill:#ffffff;fill-opacity:1;" d="M 188.722656 77.015625 L 186.851562 76.640625 C 186.386719 76.546875 186.050781 76.414062 185.84375 76.234375 C 185.640625 76.058594 185.535156 75.839844 185.535156 75.574219 C 185.535156 75.265625 185.6875 75.011719 185.988281 74.816406 C 186.289062 74.617188 186.675781 74.519531 187.140625 74.519531 C 187.648438 74.519531 188.050781 74.636719 188.351562 74.871094 C 188.65625 75.105469 188.847656 75.40625 188.9375 75.773438 L 191.429688 75.425781 C 191.332031 74.835938 191.097656 74.320312 190.726562 73.886719 C 190.355469 73.449219 189.863281 73.113281 189.253906 72.875 C 188.644531 72.640625 187.921875 72.519531 187.085938 72.519531 C 186.214844 72.519531 185.453125 72.652344 184.800781 72.914062 C 184.152344 73.175781 183.648438 73.546875 183.289062 74.023438 C 182.929688 74.503906 182.75 75.070312 182.75 75.726562 C 182.75 76.503906 183 77.140625 183.5 77.632812 C 183.996094 78.125 184.746094 78.472656 185.742188 78.679688 L 187.527344 79.03125 C 187.96875 79.125 188.300781 79.257812 188.519531 79.429688 C 188.742188 79.601562 188.851562 79.820312 188.851562 80.089844 C 188.851562 80.398438 188.699219 80.65625 188.394531 80.859375 C 188.089844 81.0625 187.671875 81.164062 187.140625 81.164062 C 186.582031 81.164062 186.132812 81.042969 185.796875 80.800781 C 185.460938 80.554688 185.234375 80.199219 185.117188 79.726562 L 182.488281 80.082031 C 182.59375 80.734375 182.851562 81.292969 183.261719 81.761719 C 183.667969 82.226562 184.199219 82.585938 184.847656 82.832031 C 185.5 83.078125 186.246094 83.199219 187.085938 83.199219 C 187.988281 83.199219 188.789062 83.058594 189.484375 82.773438 C 190.175781 82.492188 190.722656 82.097656 191.113281 81.589844 C 191.503906 81.082031 191.703125 80.488281 191.703125 79.808594 C 191.703125 79.066406 191.457031 78.464844 190.96875 78.003906 C 190.480469 77.546875 189.730469 77.214844 188.722656 77.015625 "/><path style=" stroke:none;fill-rule:nonzero;fill:#ffffff;fill-opacity:1;" d="M 103.734375 80.246094 C 104.058594 79.742188 104.308594 79.15625 104.484375 78.484375 C 104.664062 77.816406 104.75 77.070312 104.75 76.25 L 102.417969 76.25 C 102.417969 76.933594 102.296875 77.5625 102.066406 78.136719 C 101.992188 78.316406 101.910156 78.484375 101.820312 78.648438 L 99.472656 75.949219 L 100.304688 75.351562 C 100.691406 75.066406 101.019531 74.757812 101.296875 74.433594 C 101.570312 74.105469 101.78125 73.75 101.929688 73.371094 C 102.078125 72.992188 102.152344 72.59375 102.152344 72.175781 C 102.152344 71.566406 102.007812 71.015625 101.714844 70.523438 C 101.421875 70.03125 101.007812 69.636719 100.472656 69.339844 C 99.9375 69.042969 99.296875 68.894531 98.558594 68.894531 C 97.804688 68.894531 97.144531 69.050781 96.578125 69.359375 C 96.011719 69.667969 95.570312 70.085938 95.257812 70.621094 C 94.949219 71.152344 94.792969 71.753906 94.792969 72.417969 C 94.792969 73 94.90625 73.535156 95.132812 74.035156 C 95.359375 74.535156 95.65625 75.011719 96.015625 75.464844 C 96.0625 75.519531 96.105469 75.574219 96.152344 75.632812 C 95.632812 75.988281 95.179688 76.339844 94.800781 76.6875 C 94.410156 77.050781 94.105469 77.4375 93.894531 77.855469 C 93.683594 78.273438 93.578125 78.757812 93.578125 79.3125 C 93.578125 80.03125 93.765625 80.683594 94.144531 81.269531 C 94.519531 81.859375 95.054688 82.324219 95.75 82.671875 C 96.445312 83.019531 97.269531 83.191406 98.230469 83.191406 C 98.859375 83.191406 99.5 83.089844 100.15625 82.886719 C 100.765625 82.699219 101.304688 82.410156 101.785156 82.035156 L 102.628906 82.984375 L 105.582031 82.984375 L 103.5 80.582031 C 103.578125 80.476562 103.65625 80.363281 103.734375 80.246094 Z M 97.375 71.765625 C 97.492188 71.570312 97.652344 71.421875 97.855469 71.3125 C 98.0625 71.203125 98.300781 71.148438 98.578125 71.148438 C 98.992188 71.148438 99.316406 71.261719 99.542969 71.488281 C 99.769531 71.714844 99.882812 71.988281 99.882812 72.308594 C 99.882812 72.503906 99.84375 72.695312 99.757812 72.875 C 99.675781 73.058594 99.554688 73.226562 99.402344 73.386719 C 99.25 73.542969 99.074219 73.691406 98.875 73.828125 L 98.105469 74.335938 C 98.089844 74.316406 98.070312 74.292969 98.054688 74.273438 C 97.785156 73.941406 97.578125 73.625 97.425781 73.332031 C 97.277344 73.039062 97.203125 72.746094 97.203125 72.445312 C 97.203125 72.183594 97.261719 71.957031 97.375 71.765625 Z M 99.8125 80.59375 C 99.332031 80.824219 98.835938 80.9375 98.324219 80.9375 C 97.933594 80.9375 97.582031 80.867188 97.277344 80.71875 C 96.972656 80.574219 96.734375 80.371094 96.5625 80.109375 C 96.390625 79.847656 96.304688 79.542969 96.304688 79.191406 C 96.304688 78.824219 96.402344 78.503906 96.601562 78.230469 C 96.796875 77.957031 97.082031 77.679688 97.464844 77.398438 L 97.582031 77.316406 L 100.269531 80.332031 C 100.121094 80.429688 99.972656 80.519531 99.8125 80.59375 "/><path style=" stroke:none;fill-rule:nonzero;fill:#ffffff;fill-opacity:1;" d="M 145.34375 82.984375 L 148.125 82.984375 L 148.125 72.671875 L 145.34375 72.671875 L 145.34375 82.984375 "/><path style=" stroke:none;fill-rule:nonzero;fill:#ffffff;fill-opacity:1;" d="M 169.714844 73.851562 C 169.269531 73.414062 168.75 73.082031 168.15625 72.855469 C 167.566406 72.632812 166.925781 72.519531 166.234375 72.519531 C 165.230469 72.519531 164.355469 72.746094 163.609375 73.199219 C 162.859375 73.648438 162.28125 74.277344 161.871094 75.074219 C 161.457031 75.878906 161.253906 76.808594 161.253906 77.875 C 161.253906 78.953125 161.460938 79.890625 161.875 80.6875 C 162.289062 81.484375 162.878906 82.101562 163.640625 82.535156 C 164.402344 82.972656 165.3125 83.191406 166.363281 83.191406 C 167.171875 83.191406 167.894531 83.066406 168.527344 82.820312 C 169.15625 82.574219 169.683594 82.230469 170.105469 81.785156 C 170.527344 81.339844 170.816406 80.816406 170.980469 80.21875 L 168.449219 79.855469 C 168.347656 80.121094 168.203125 80.351562 168.011719 80.53125 C 167.824219 80.714844 167.59375 80.855469 167.320312 80.953125 C 167.050781 81.050781 166.75 81.097656 166.417969 81.097656 C 165.933594 81.097656 165.507812 80.996094 165.144531 80.785156 C 164.78125 80.578125 164.5 80.269531 164.296875 79.863281 C 164.117188 79.5 164.023438 79.058594 164.007812 78.546875 L 171.121094 78.546875 L 171.121094 77.773438 C 171.121094 76.910156 170.996094 76.15625 170.75 75.496094 C 170.503906 74.839844 170.15625 74.292969 169.714844 73.851562 Z M 165.039062 74.949219 C 165.375 74.730469 165.78125 74.625 166.261719 74.625 C 166.742188 74.625 167.144531 74.730469 167.472656 74.945312 C 167.796875 75.160156 168.046875 75.464844 168.214844 75.855469 C 168.332031 76.132812 168.40625 76.445312 168.441406 76.792969 L 164.015625 76.792969 C 164.050781 76.445312 164.132812 76.128906 164.265625 75.847656 C 164.441406 75.46875 164.699219 75.167969 165.039062 74.949219 "/><path style=" stroke:none;fill-rule:nonzero;fill:#ffffff;fill-opacity:1;" d="M 146.722656 68.4375 C 146.300781 68.4375 145.9375 68.578125 145.636719 68.859375 C 145.335938 69.136719 145.183594 69.480469 145.183594 69.886719 C 145.183594 70.292969 145.335938 70.632812 145.636719 70.914062 C 145.9375 71.195312 146.304688 71.335938 146.734375 71.335938 C 147.164062 71.335938 147.527344 71.195312 147.828125 70.914062 C 148.125 70.632812 148.277344 70.292969 148.277344 69.886719 C 148.277344 69.480469 148.125 69.136719 147.828125 68.859375 C 147.527344 68.578125 147.160156 68.4375 146.722656 68.4375 "/><path style=" stroke:none;fill-rule:nonzero;fill:#ffffff;fill-opacity:1;" d="M 158.011719 72.988281 C 157.476562 72.675781 156.847656 72.519531 156.132812 72.519531 C 155.246094 72.519531 154.523438 72.761719 153.960938 73.242188 C 153.53125 73.605469 153.183594 74.085938 152.917969 74.679688 L 152.890625 72.671875 L 150.238281 72.671875 L 150.238281 82.984375 L 153.019531 82.984375 L 153.019531 77.0625 C 153.019531 76.589844 153.105469 76.191406 153.277344 75.867188 C 153.449219 75.542969 153.6875 75.292969 153.988281 75.121094 C 154.289062 74.953125 154.636719 74.867188 155.03125 74.867188 C 155.621094 74.867188 156.082031 75.050781 156.414062 75.414062 C 156.742188 75.777344 156.90625 76.285156 156.90625 76.941406 L 156.90625 82.984375 L 159.691406 82.984375 L 159.691406 76.445312 C 159.691406 75.621094 159.546875 74.917969 159.253906 74.332031 C 158.960938 73.746094 158.546875 73.300781 158.011719 72.988281 "/><path style=" stroke:none;fill-rule:nonzero;fill:#ffffff;fill-opacity:1;" d="M 130.242188 78.59375 C 130.242188 79.0625 130.15625 79.457031 129.984375 79.785156 C 129.8125 80.113281 129.578125 80.359375 129.273438 80.527344 C 128.972656 80.695312 128.625 80.78125 128.234375 80.78125 C 127.648438 80.78125 127.1875 80.601562 126.855469 80.238281 C 126.519531 79.878906 126.355469 79.371094 126.355469 78.714844 L 126.355469 72.671875 L 123.570312 72.671875 L 123.570312 79.210938 C 123.570312 80.027344 123.71875 80.726562 124.011719 81.316406 C 124.304688 81.90625 124.714844 82.355469 125.253906 82.667969 C 125.789062 82.980469 126.414062 83.132812 127.128906 83.132812 C 128.007812 83.132812 128.730469 82.894531 129.292969 82.414062 C 129.726562 82.046875 130.074219 81.566406 130.34375 80.96875 L 130.371094 82.984375 L 133.035156 82.984375 L 133.035156 72.671875 L 130.242188 72.671875 L 130.242188 78.59375 "/><path style=" stroke:none;fill-rule:nonzero;fill:#ffffff;fill-opacity:1;" d="M 140.8125 77.015625 L 138.941406 76.640625 C 138.476562 76.546875 138.140625 76.414062 137.933594 76.234375 C 137.730469 76.058594 137.625 75.839844 137.625 75.574219 C 137.625 75.265625 137.777344 75.011719 138.078125 74.816406 C 138.378906 74.617188 138.765625 74.519531 139.230469 74.519531 C 139.738281 74.519531 140.140625 74.636719 140.441406 74.871094 C 140.742188 75.105469 140.9375 75.40625 141.027344 75.773438 L 143.519531 75.425781 C 143.421875 74.835938 143.1875 74.320312 142.816406 73.886719 C 142.445312 73.449219 141.953125 73.113281 141.34375 72.875 C 140.734375 72.640625 140.011719 72.519531 139.175781 72.519531 C 138.304688 72.519531 137.542969 72.652344 136.890625 72.914062 C 136.242188 73.175781 135.734375 73.546875 135.378906 74.023438 C 135.019531 74.503906 134.839844 75.070312 134.839844 75.726562 C 134.839844 76.503906 135.089844 77.140625 135.589844 77.632812 C 136.085938 78.125 136.835938 78.472656 137.832031 78.679688 L 139.617188 79.03125 C 140.058594 79.125 140.386719 79.257812 140.609375 79.429688 C 140.832031 79.601562 140.941406 79.820312 140.941406 80.089844 C 140.941406 80.398438 140.789062 80.65625 140.484375 80.859375 C 140.179688 81.0625 139.761719 81.164062 139.230469 81.164062 C 138.671875 81.164062 138.222656 81.042969 137.886719 80.800781 C 137.550781 80.554688 137.324219 80.199219 137.207031 79.726562 L 134.578125 80.082031 C 134.683594 80.734375 134.941406 81.292969 135.351562 81.761719 C 135.757812 82.226562 136.289062 82.585938 136.9375 82.832031 C 137.589844 83.078125 138.335938 83.199219 139.175781 83.199219 C 140.078125 83.199219 140.878906 83.058594 141.570312 82.773438 C 142.265625 82.492188 142.8125 82.097656 143.203125 81.589844 C 143.59375 81.082031 143.792969 80.488281 143.792969 79.808594 C 143.792969 79.066406 143.546875 78.464844 143.058594 78.003906 C 142.570312 77.546875 141.820312 77.214844 140.8125 77.015625 "/><path style=" stroke:none;fill-rule:nonzero;fill:#ffffff;fill-opacity:1;" d="M 135.773438 63.851562 L 135.773438 57.3125 C 135.773438 56.488281 135.625 55.785156 135.328125 55.199219 C 135.035156 54.613281 134.617188 54.164062 134.082031 53.855469 C 133.546875 53.542969 132.921875 53.386719 132.203125 53.386719 C 131.320312 53.386719 130.597656 53.625 130.03125 54.105469 C 129.636719 54.441406 129.3125 54.878906 129.054688 55.410156 L 129.054688 49.929688 L 126.308594 49.929688 L 126.308594 63.851562 L 129.09375 63.851562 L 129.09375 57.925781 C 129.09375 57.453125 129.179688 57.054688 129.351562 56.730469 C 129.523438 56.40625 129.757812 56.160156 130.0625 55.988281 C 130.363281 55.816406 130.710938 55.734375 131.101562 55.734375 C 131.695312 55.734375 132.15625 55.914062 132.484375 56.277344 C 132.816406 56.644531 132.980469 57.152344 132.980469 57.804688 L 132.980469 63.851562 L 135.773438 63.851562 "/><path style=" stroke:none;fill-rule:nonzero;fill:#ffffff;fill-opacity:1;" d="M 172.898438 54.054688 C 172.136719 53.609375 171.234375 53.386719 170.203125 53.386719 C 169.164062 53.386719 168.261719 53.609375 167.496094 54.054688 C 166.734375 54.5 166.144531 55.121094 165.730469 55.925781 C 165.316406 56.722656 165.109375 57.660156 165.109375 58.730469 C 165.109375 59.789062 165.316406 60.71875 165.730469 61.519531 C 166.144531 62.320312 166.734375 62.945312 167.496094 63.386719 C 168.261719 63.835938 169.164062 64.058594 170.203125 64.058594 C 171.234375 64.058594 172.136719 63.835938 172.898438 63.386719 C 173.660156 62.945312 174.25 62.320312 174.664062 61.519531 C 175.078125 60.71875 175.285156 59.789062 175.285156 58.730469 C 175.285156 57.660156 175.078125 56.722656 174.664062 55.925781 C 174.25 55.121094 173.660156 54.5 172.898438 54.054688 Z M 172.191406 60.34375 C 172.019531 60.8125 171.765625 61.183594 171.429688 61.449219 C 171.097656 61.71875 170.6875 61.851562 170.203125 61.851562 C 169.710938 61.851562 169.296875 61.71875 168.964844 61.449219 C 168.632812 61.183594 168.378906 60.8125 168.207031 60.34375 C 168.035156 59.871094 167.949219 59.332031 167.949219 58.722656 C 167.949219 58.105469 168.035156 57.5625 168.207031 57.097656 C 168.378906 56.628906 168.632812 56.261719 168.96875 55.992188 C 169.304688 55.726562 169.714844 55.59375 170.203125 55.59375 C 170.6875 55.59375 171.097656 55.726562 171.429688 55.992188 C 171.765625 56.261719 172.019531 56.628906 172.191406 57.097656 C 172.367188 57.5625 172.453125 58.105469 172.453125 58.722656 C 172.453125 59.332031 172.367188 59.871094 172.191406 60.34375 "/><path style=" stroke:none;fill-rule:nonzero;fill:#ffffff;fill-opacity:1;" d="M 97.765625 63.851562 L 100.621094 63.851562 L 100.621094 52.320312 L 104.863281 52.320312 L 104.863281 49.929688 L 93.503906 49.929688 L 93.503906 52.320312 L 97.765625 52.320312 L 97.765625 63.851562 "/><path style=" stroke:none;fill-rule:nonzero;fill:#ffffff;fill-opacity:1;" d="M 147.300781 63.851562 L 147.300781 57.3125 C 147.300781 56.488281 147.152344 55.785156 146.859375 55.199219 C 146.566406 54.613281 146.152344 54.164062 145.617188 53.855469 C 145.082031 53.542969 144.457031 53.386719 143.738281 53.386719 C 142.855469 53.386719 142.132812 53.625 141.566406 54.105469 C 141.136719 54.472656 140.792969 54.953125 140.527344 55.542969 L 140.496094 53.539062 L 137.84375 53.539062 L 137.84375 63.851562 L 140.628906 63.851562 L 140.628906 57.925781 C 140.628906 57.453125 140.714844 57.054688 140.886719 56.730469 C 141.058594 56.40625 141.292969 56.160156 141.59375 55.988281 C 141.898438 55.816406 142.246094 55.734375 142.636719 55.734375 C 143.230469 55.734375 143.691406 55.914062 144.019531 56.277344 C 144.351562 56.644531 144.515625 57.152344 144.515625 57.804688 L 144.515625 63.851562 L 147.300781 63.851562 "/><path style=" stroke:none;fill-rule:nonzero;fill:#ffffff;fill-opacity:1;" d="M 163.464844 49.929688 L 160.679688 49.929688 L 160.679688 63.851562 L 163.464844 63.851562 L 163.464844 49.929688 "/><path style=" stroke:none;fill-rule:nonzero;fill:#ffffff;fill-opacity:1;" d="M 185.871094 66.089844 C 186.300781 65.457031 186.515625 64.660156 186.515625 63.699219 L 186.515625 53.539062 L 183.757812 53.539062 L 183.757812 55.21875 L 183.675781 55.21875 C 183.527344 54.917969 183.320312 54.628906 183.0625 54.347656 C 182.804688 54.070312 182.480469 53.839844 182.09375 53.660156 C 181.703125 53.476562 181.230469 53.386719 180.675781 53.386719 C 179.894531 53.386719 179.179688 53.589844 178.539062 53.996094 C 177.894531 54.398438 177.382812 54.992188 177 55.78125 C 176.617188 56.5625 176.425781 57.523438 176.425781 58.667969 C 176.425781 59.773438 176.613281 60.703125 176.992188 61.460938 C 177.367188 62.214844 177.878906 62.78125 178.519531 63.164062 C 179.160156 63.546875 179.878906 63.738281 180.675781 63.738281 C 181.210938 63.738281 181.671875 63.660156 182.050781 63.503906 C 182.429688 63.347656 182.746094 63.144531 182.992188 62.882812 C 183.242188 62.625 183.441406 62.34375 183.582031 62.039062 L 183.75 62.039062 L 183.75 63.871094 C 183.75 64.566406 183.550781 65.085938 183.152344 65.421875 C 182.753906 65.757812 182.203125 65.925781 181.5 65.925781 C 181.070312 65.925781 180.707031 65.871094 180.410156 65.757812 C 180.113281 65.644531 179.875 65.5 179.695312 65.316406 C 179.515625 65.136719 179.382812 64.945312 179.292969 64.738281 L 176.835938 65.25 C 176.972656 65.78125 177.242188 66.25 177.640625 66.660156 C 178.039062 67.066406 178.5625 67.386719 179.210938 67.617188 C 179.859375 67.847656 180.625 67.960938 181.507812 67.960938 C 182.488281 67.960938 183.351562 67.808594 184.101562 67.5 C 184.851562 67.191406 185.441406 66.722656 185.871094 66.089844 Z M 183.511719 60.222656 C 183.335938 60.660156 183.078125 61 182.742188 61.234375 C 182.40625 61.472656 181.996094 61.589844 181.515625 61.589844 C 181.042969 61.589844 180.640625 61.472656 180.304688 61.234375 C 179.96875 61 179.710938 60.660156 179.542969 60.21875 C 179.371094 59.773438 179.285156 59.25 179.285156 58.636719 C 179.285156 58.039062 179.371094 57.515625 179.542969 57.0625 C 179.710938 56.613281 179.964844 56.257812 180.296875 56.003906 C 180.632812 55.746094 181.039062 55.621094 181.515625 55.621094 C 181.996094 55.621094 182.40625 55.746094 182.742188 55.992188 C 183.078125 56.242188 183.335938 56.59375 183.511719 57.046875 C 183.691406 57.496094 183.777344 58.027344 183.777344 58.636719 C 183.777344 59.253906 183.691406 59.78125 183.511719 60.222656 "/><path style=" stroke:none;fill-rule:nonzero;fill:#ffffff;fill-opacity:1;" d="M 153.953125 64.058594 C 154.988281 64.058594 155.882812 63.835938 156.648438 63.386719 C 157.410156 62.945312 158 62.320312 158.414062 61.519531 C 158.828125 60.71875 159.035156 59.789062 159.035156 58.730469 C 159.035156 57.660156 158.828125 56.722656 158.414062 55.925781 C 158 55.121094 157.410156 54.5 156.648438 54.054688 C 155.882812 53.609375 154.988281 53.386719 153.953125 53.386719 C 152.914062 53.386719 152.011719 53.609375 151.246094 54.054688 C 150.484375 54.5 149.894531 55.121094 149.480469 55.925781 C 149.066406 56.722656 148.859375 57.660156 148.859375 58.730469 C 148.859375 59.789062 149.066406 60.71875 149.480469 61.519531 C 149.894531 62.320312 150.484375 62.945312 151.246094 63.386719 C 152.011719 63.835938 152.914062 64.058594 153.953125 64.058594 Z M 151.957031 57.097656 C 152.128906 56.628906 152.382812 56.261719 152.71875 55.992188 C 153.054688 55.726562 153.464844 55.59375 153.953125 55.59375 C 154.4375 55.59375 154.847656 55.726562 155.179688 55.992188 C 155.515625 56.261719 155.769531 56.628906 155.941406 57.097656 C 156.117188 57.5625 156.203125 58.105469 156.203125 58.722656 C 156.203125 59.332031 156.117188 59.871094 155.941406 60.34375 C 155.769531 60.8125 155.515625 61.183594 155.179688 61.449219 C 154.847656 61.71875 154.4375 61.851562 153.953125 61.851562 C 153.460938 61.851562 153.046875 61.71875 152.714844 61.449219 C 152.378906 61.183594 152.128906 60.8125 151.957031 60.34375 C 151.785156 59.871094 151.699219 59.332031 151.699219 58.722656 C 151.699219 58.105469 151.785156 57.5625 151.957031 57.097656 "/><path style=" stroke:none;fill-rule:nonzero;fill:#ffffff;fill-opacity:1;" d="M 124.765625 60.433594 L 122.148438 60.046875 C 122.097656 60.328125 122.015625 60.578125 121.902344 60.800781 C 121.785156 61.019531 121.644531 61.210938 121.472656 61.367188 C 121.300781 61.523438 121.105469 61.640625 120.882812 61.726562 C 120.660156 61.808594 120.414062 61.851562 120.140625 61.851562 C 119.648438 61.851562 119.234375 61.71875 118.902344 61.453125 C 118.570312 61.191406 118.316406 60.824219 118.140625 60.351562 C 117.964844 59.882812 117.878906 59.339844 117.878906 58.722656 C 117.878906 58.097656 117.964844 57.550781 118.140625 57.082031 C 118.316406 56.613281 118.570312 56.246094 118.902344 55.984375 C 119.234375 55.722656 119.648438 55.59375 120.140625 55.59375 C 120.414062 55.59375 120.660156 55.632812 120.882812 55.714844 C 121.105469 55.792969 121.300781 55.910156 121.46875 56.0625 C 121.636719 56.214844 121.777344 56.398438 121.886719 56.609375 C 122 56.820312 122.085938 57.0625 122.140625 57.328125 L 124.753906 56.957031 C 124.667969 56.40625 124.496094 55.914062 124.238281 55.476562 C 123.980469 55.035156 123.648438 54.660156 123.242188 54.347656 C 122.835938 54.039062 122.371094 53.800781 121.84375 53.632812 C 121.320312 53.46875 120.742188 53.386719 120.113281 53.386719 C 119.078125 53.386719 118.183594 53.609375 117.421875 54.054688 C 116.660156 54.5 116.074219 55.125 115.660156 55.929688 C 115.246094 56.730469 115.039062 57.667969 115.039062 58.730469 C 115.039062 59.789062 115.246094 60.71875 115.660156 61.519531 C 116.074219 62.320312 116.660156 62.945312 117.421875 63.386719 C 118.183594 63.835938 119.078125 64.058594 120.113281 64.058594 C 120.742188 64.058594 121.320312 63.972656 121.855469 63.804688 C 122.386719 63.636719 122.855469 63.390625 123.261719 63.070312 C 123.667969 62.75 123.996094 62.367188 124.257812 61.925781 C 124.515625 61.484375 124.683594 60.984375 124.765625 60.433594 "/><path style=" stroke:none;fill-rule:nonzero;fill:#ffffff;fill-opacity:1;" d="M 195.53125 53.539062 L 193.730469 58.832031 C 193.519531 59.488281 193.328125 60.148438 193.160156 60.8125 C 193.109375 61.023438 193.054688 61.234375 193.003906 61.449219 C 192.957031 61.238281 192.910156 61.023438 192.867188 60.820312 C 192.726562 60.15625 192.550781 59.496094 192.335938 58.832031 L 190.601562 53.539062 L 187.648438 53.539062 L 191.542969 63.871094 L 191.421875 64.46875 C 191.371094 64.792969 191.269531 65.042969 191.109375 65.230469 C 190.949219 65.414062 190.742188 65.53125 190.484375 65.578125 C 190.226562 65.628906 189.925781 65.617188 189.582031 65.542969 L 189.039062 65.46875 L 188.535156 67.597656 C 188.761719 67.660156 189.03125 67.710938 189.351562 67.75 C 189.675781 67.792969 190.011719 67.8125 190.367188 67.8125 C 191.027344 67.8125 191.589844 67.707031 192.058594 67.496094 C 192.523438 67.285156 192.917969 66.976562 193.238281 66.578125 C 193.558594 66.179688 193.828125 65.703125 194.039062 65.148438 L 198.457031 53.539062 L 195.53125 53.539062 "/><path style=" stroke:none;fill-rule:nonzero;fill:#ffffff;fill-opacity:1;" d="M 112.902344 62.652344 C 113.320312 62.203125 113.613281 61.683594 113.773438 61.085938 L 111.242188 60.722656 C 111.144531 60.988281 111 61.214844 110.808594 61.398438 C 110.617188 61.582031 110.386719 61.722656 110.117188 61.820312 C 109.847656 61.914062 109.542969 61.964844 109.214844 61.964844 C 108.730469 61.964844 108.304688 61.859375 107.941406 61.652344 C 107.574219 61.441406 107.292969 61.136719 107.09375 60.730469 C 106.914062 60.363281 106.820312 59.921875 106.804688 59.414062 L 113.914062 59.414062 L 113.914062 58.636719 C 113.914062 57.777344 113.792969 57.019531 113.546875 56.363281 C 113.300781 55.707031 112.953125 55.15625 112.507812 54.71875 C 112.0625 54.28125 111.542969 53.949219 110.953125 53.722656 C 110.359375 53.5 109.71875 53.386719 109.027344 53.386719 C 108.027344 53.386719 107.152344 53.613281 106.402344 54.0625 C 105.65625 54.515625 105.078125 55.140625 104.664062 55.941406 C 104.253906 56.742188 104.046875 57.675781 104.046875 58.742188 C 104.046875 59.816406 104.253906 60.753906 104.667969 61.554688 C 105.082031 62.351562 105.671875 62.96875 106.4375 63.402344 C 107.199219 63.839844 108.105469 64.058594 109.160156 64.058594 C 109.96875 64.058594 110.691406 63.933594 111.320312 63.6875 C 111.953125 63.441406 112.480469 63.09375 112.902344 62.652344 Z M 107.832031 55.816406 C 108.167969 55.597656 108.578125 55.488281 109.054688 55.488281 C 109.535156 55.488281 109.941406 55.597656 110.265625 55.8125 C 110.59375 56.027344 110.839844 56.328125 111.007812 56.722656 C 111.128906 56.996094 111.203125 57.3125 111.238281 57.65625 L 106.8125 57.65625 C 106.847656 57.3125 106.929688 56.996094 107.0625 56.714844 C 107.238281 56.332031 107.496094 56.035156 107.832031 55.816406 "/><path style=" stroke:none;fill-rule:nonzero;fill:#ffffff;fill-opacity:1;" d="M 172.921875 44.714844 L 175.707031 44.714844 L 175.707031 36.542969 L 177.855469 36.542969 L 177.855469 34.402344 L 175.707031 34.402344 L 175.707031 33.664062 C 175.707031 33.289062 175.792969 33.007812 175.96875 32.8125 C 176.140625 32.621094 176.4375 32.523438 176.855469 32.523438 C 177.027344 32.523438 177.203125 32.539062 177.375 32.5625 C 177.546875 32.585938 177.683594 32.613281 177.789062 32.636719 L 178.183594 30.515625 C 178.027344 30.472656 177.773438 30.421875 177.421875 30.371094 C 177.066406 30.316406 176.683594 30.292969 176.265625 30.292969 C 175.613281 30.292969 175.03125 30.410156 174.527344 30.648438 C 174.023438 30.882812 173.628906 31.238281 173.347656 31.710938 C 173.0625 32.183594 172.921875 32.78125 172.921875 33.496094 L 172.921875 34.402344 L 171.089844 34.402344 L 171.089844 36.542969 L 172.921875 36.542969 L 172.921875 44.714844 "/><path style=" stroke:none;fill-rule:nonzero;fill:#ffffff;fill-opacity:1;" d="M 130.5 44.253906 C 131.261719 44.699219 132.164062 44.921875 133.203125 44.921875 C 134.238281 44.921875 135.136719 44.699219 135.902344 44.253906 C 136.664062 43.808594 137.253906 43.1875 137.667969 42.386719 C 138.082031 41.585938 138.289062 40.65625 138.289062 39.597656 C 138.289062 38.523438 138.082031 37.589844 137.667969 36.789062 C 137.253906 35.988281 136.664062 35.367188 135.902344 34.921875 C 135.136719 34.476562 134.238281 34.253906 133.203125 34.253906 C 132.164062 34.253906 131.261719 34.476562 130.5 34.921875 C 129.738281 35.367188 129.148438 35.988281 128.734375 36.789062 C 128.320312 37.589844 128.113281 38.523438 128.113281 39.597656 C 128.113281 40.65625 128.320312 41.585938 128.734375 42.386719 C 129.148438 43.1875 129.738281 43.808594 130.5 44.253906 Z M 131.210938 37.960938 C 131.382812 37.496094 131.636719 37.128906 131.972656 36.859375 C 132.308594 36.589844 132.71875 36.457031 133.203125 36.457031 C 133.691406 36.457031 134.101562 36.589844 134.433594 36.859375 C 134.765625 37.128906 135.019531 37.496094 135.195312 37.960938 C 135.371094 38.429688 135.457031 38.972656 135.457031 39.585938 C 135.457031 40.199219 135.371094 40.738281 135.195312 41.207031 C 135.019531 41.679688 134.765625 42.046875 134.433594 42.316406 C 134.101562 42.582031 133.691406 42.714844 133.203125 42.714844 C 132.710938 42.714844 132.300781 42.582031 131.96875 42.316406 C 131.632812 42.046875 131.382812 41.679688 131.210938 41.207031 C 131.039062 40.738281 130.953125 40.199219 130.953125 39.585938 C 130.953125 38.972656 131.039062 38.429688 131.210938 37.960938 "/><path style=" stroke:none;fill-rule:nonzero;fill:#ffffff;fill-opacity:1;" d="M 100.542969 42.304688 C 100.160156 42.457031 99.710938 42.53125 99.203125 42.53125 C 98.671875 42.53125 98.203125 42.449219 97.789062 42.28125 C 97.378906 42.117188 97.054688 41.871094 96.8125 41.546875 C 96.566406 41.21875 96.433594 40.816406 96.410156 40.34375 L 93.632812 40.34375 C 93.652344 41.335938 93.890625 42.171875 94.347656 42.851562 C 94.804688 43.535156 95.449219 44.050781 96.277344 44.398438 C 97.105469 44.75 98.085938 44.921875 99.222656 44.921875 C 100.355469 44.921875 101.324219 44.75 102.128906 44.410156 C 102.929688 44.066406 103.546875 43.578125 103.976562 42.945312 C 104.40625 42.316406 104.621094 41.570312 104.621094 40.71875 C 104.621094 40.152344 104.519531 39.648438 104.320312 39.203125 C 104.125 38.761719 103.835938 38.378906 103.460938 38.054688 C 103.089844 37.730469 102.644531 37.457031 102.128906 37.230469 C 101.617188 37 101.050781 36.820312 100.433594 36.683594 L 99.164062 36.375 C 98.734375 36.273438 98.347656 36.152344 98 36.003906 C 97.65625 35.859375 97.386719 35.675781 97.1875 35.453125 C 96.992188 35.234375 96.894531 34.957031 96.894531 34.625 C 96.894531 34.308594 96.984375 34.027344 97.167969 33.78125 C 97.351562 33.535156 97.621094 33.34375 97.96875 33.203125 C 98.316406 33.0625 98.730469 32.992188 99.210938 32.992188 C 99.929688 32.992188 100.503906 33.152344 100.933594 33.476562 C 101.367188 33.800781 101.609375 34.253906 101.660156 34.832031 L 104.40625 34.832031 C 104.386719 33.992188 104.164062 33.253906 103.734375 32.617188 C 103.304688 31.980469 102.703125 31.488281 101.933594 31.132812 C 101.164062 30.777344 100.261719 30.601562 99.230469 30.601562 C 98.207031 30.601562 97.304688 30.773438 96.515625 31.125 C 95.726562 31.480469 95.109375 31.96875 94.65625 32.601562 C 94.207031 33.226562 93.980469 33.964844 93.980469 34.804688 C 93.980469 35.8125 94.3125 36.628906 94.984375 37.246094 C 95.652344 37.867188 96.597656 38.320312 97.820312 38.605469 L 99.332031 38.980469 C 99.863281 39.097656 100.304688 39.234375 100.664062 39.390625 C 101.023438 39.546875 101.292969 39.734375 101.476562 39.953125 C 101.660156 40.167969 101.753906 40.4375 101.753906 40.753906 C 101.753906 41.105469 101.648438 41.414062 101.433594 41.679688 C 101.222656 41.949219 100.925781 42.15625 100.542969 42.304688 "/><path style=" stroke:none;fill-rule:nonzero;fill:#ffffff;fill-opacity:1;" d="M 162.714844 44.253906 C 163.480469 44.699219 164.378906 44.921875 165.421875 44.921875 C 166.453125 44.921875 167.351562 44.699219 168.117188 44.253906 C 168.878906 43.808594 169.46875 43.1875 169.882812 42.386719 C 170.296875 41.585938 170.503906 40.65625 170.503906 39.597656 C 170.503906 38.523438 170.296875 37.589844 169.882812 36.789062 C 169.46875 35.988281 168.878906 35.367188 168.117188 34.921875 C 167.351562 34.476562 166.453125 34.253906 165.421875 34.253906 C 164.378906 34.253906 163.480469 34.476562 162.714844 34.921875 C 161.953125 35.367188 161.363281 35.988281 160.949219 36.789062 C 160.535156 37.589844 160.328125 38.523438 160.328125 39.597656 C 160.328125 40.65625 160.535156 41.585938 160.949219 42.386719 C 161.363281 43.1875 161.953125 43.808594 162.714844 44.253906 Z M 163.425781 37.960938 C 163.597656 37.496094 163.851562 37.128906 164.1875 36.859375 C 164.523438 36.589844 164.9375 36.457031 165.421875 36.457031 C 165.90625 36.457031 166.316406 36.589844 166.648438 36.859375 C 166.980469 37.128906 167.238281 37.496094 167.410156 37.960938 C 167.585938 38.429688 167.671875 38.972656 167.671875 39.585938 C 167.671875 40.199219 167.585938 40.738281 167.410156 41.207031 C 167.238281 41.679688 166.980469 42.046875 166.648438 42.316406 C 166.316406 42.582031 165.90625 42.714844 165.421875 42.714844 C 164.929688 42.714844 164.515625 42.582031 164.183594 42.316406 C 163.847656 42.046875 163.597656 41.679688 163.425781 41.207031 C 163.253906 40.738281 163.167969 40.199219 163.167969 39.585938 C 163.167969 38.972656 163.253906 38.429688 163.425781 37.960938 "/><path style=" stroke:none;fill-rule:nonzero;fill:#ffffff;fill-opacity:1;" d="M 141.816406 44.253906 C 142.578125 44.699219 143.480469 44.921875 144.519531 44.921875 C 145.554688 44.921875 146.453125 44.699219 147.214844 44.253906 C 147.976562 43.808594 148.566406 43.1875 148.980469 42.386719 C 149.394531 41.585938 149.601562 40.65625 149.601562 39.597656 C 149.601562 38.523438 149.394531 37.589844 148.980469 36.789062 C 148.566406 35.988281 147.976562 35.367188 147.214844 34.921875 C 146.453125 34.476562 145.554688 34.253906 144.519531 34.253906 C 143.480469 34.253906 142.578125 34.476562 141.816406 34.921875 C 141.054688 35.367188 140.464844 35.988281 140.050781 36.789062 C 139.636719 37.589844 139.429688 38.523438 139.429688 39.597656 C 139.429688 40.65625 139.636719 41.585938 140.050781 42.386719 C 140.464844 43.1875 141.054688 43.808594 141.816406 44.253906 Z M 142.527344 37.960938 C 142.695312 37.496094 142.949219 37.128906 143.289062 36.859375 C 143.625 36.589844 144.035156 36.457031 144.519531 36.457031 C 145.007812 36.457031 145.414062 36.589844 145.75 36.859375 C 146.082031 37.128906 146.335938 37.496094 146.511719 37.960938 C 146.683594 38.429688 146.773438 38.972656 146.773438 39.585938 C 146.773438 40.199219 146.683594 40.738281 146.511719 41.207031 C 146.335938 41.679688 146.082031 42.046875 145.75 42.316406 C 145.414062 42.582031 145.007812 42.714844 144.519531 42.714844 C 144.027344 42.714844 143.617188 42.582031 143.28125 42.316406 C 142.949219 42.046875 142.695312 41.679688 142.527344 41.207031 C 142.355469 40.738281 142.269531 40.199219 142.269531 39.585938 C 142.269531 38.972656 142.355469 38.429688 142.527344 37.960938 "/><path style=" stroke:none;fill-rule:nonzero;fill:#ffffff;fill-opacity:1;" d="M 154.03125 30.796875 L 151.246094 30.796875 L 151.246094 44.714844 L 154.03125 44.714844 L 154.03125 30.796875 "/><path style=" stroke:none;fill-rule:nonzero;fill:#ffffff;fill-opacity:1;" d="M 114.03125 35.214844 C 113.625 34.902344 113.160156 34.664062 112.632812 34.5 C 112.105469 34.335938 111.53125 34.253906 110.898438 34.253906 C 109.867188 34.253906 108.96875 34.476562 108.210938 34.921875 C 107.449219 35.367188 106.863281 35.988281 106.449219 36.792969 C 106.035156 37.597656 105.828125 38.53125 105.828125 39.597656 C 105.828125 40.65625 106.035156 41.585938 106.449219 42.386719 C 106.863281 43.1875 107.449219 43.808594 108.210938 44.253906 C 108.96875 44.699219 109.867188 44.921875 110.898438 44.921875 C 111.53125 44.921875 112.109375 44.835938 112.644531 44.667969 C 113.175781 44.503906 113.644531 44.257812 114.050781 43.9375 C 114.453125 43.617188 114.785156 43.234375 115.042969 42.792969 C 115.300781 42.351562 115.472656 41.851562 115.554688 41.296875 L 112.9375 40.914062 C 112.886719 41.195312 112.804688 41.445312 112.691406 41.667969 C 112.574219 41.886719 112.433594 42.074219 112.261719 42.230469 C 112.089844 42.386719 111.890625 42.507812 111.671875 42.589844 C 111.449219 42.675781 111.203125 42.714844 110.929688 42.714844 C 110.4375 42.714844 110.023438 42.585938 109.691406 42.320312 C 109.359375 42.054688 109.105469 41.6875 108.929688 41.21875 C 108.753906 40.746094 108.667969 40.203125 108.667969 39.585938 C 108.667969 38.964844 108.753906 38.417969 108.929688 37.949219 C 109.105469 37.476562 109.359375 37.109375 109.691406 36.851562 C 110.023438 36.589844 110.4375 36.457031 110.929688 36.457031 C 111.203125 36.457031 111.449219 36.5 111.671875 36.578125 C 111.890625 36.660156 112.085938 36.777344 112.253906 36.929688 C 112.421875 37.082031 112.5625 37.265625 112.675781 37.476562 C 112.789062 37.6875 112.871094 37.925781 112.929688 38.195312 L 115.542969 37.820312 C 115.457031 37.273438 115.285156 36.78125 115.027344 36.339844 C 114.765625 35.902344 114.433594 35.527344 114.03125 35.214844 "/><path style=" stroke:none;fill-rule:nonzero;fill:#ffffff;fill-opacity:1;" d="M 119.84375 36.277344 L 119.84375 30.796875 L 117.097656 30.796875 L 117.097656 44.714844 L 119.882812 44.714844 L 119.882812 38.792969 C 119.882812 38.320312 119.96875 37.921875 120.136719 37.597656 C 120.308594 37.273438 120.546875 37.027344 120.847656 36.855469 C 121.152344 36.683594 121.496094 36.597656 121.890625 36.597656 C 122.484375 36.597656 122.941406 36.78125 123.273438 37.144531 C 123.605469 37.507812 123.769531 38.019531 123.769531 38.671875 L 123.769531 44.714844 L 126.5625 44.714844 L 126.5625 38.175781 C 126.5625 37.355469 126.414062 36.652344 126.117188 36.066406 C 125.824219 35.480469 125.40625 35.03125 124.871094 34.71875 C 124.335938 34.410156 123.710938 34.253906 122.992188 34.253906 C 122.109375 34.253906 121.382812 34.492188 120.820312 34.972656 C 120.425781 35.308594 120.101562 35.746094 119.84375 36.277344 "/><path style=" stroke:none;fill-rule:nonzero;fill:#ffffff;fill-opacity:1;" d="M 134.285156 23.457031 C 133.980469 23.660156 133.5625 23.761719 133.03125 23.761719 C 132.472656 23.761719 132.023438 23.640625 131.6875 23.398438 C 131.351562 23.152344 131.125 22.796875 131.003906 22.320312 L 128.378906 22.675781 C 128.484375 23.332031 128.742188 23.890625 129.152344 24.359375 C 129.558594 24.824219 130.085938 25.183594 130.738281 25.429688 C 131.390625 25.675781 132.136719 25.796875 132.976562 25.796875 C 133.878906 25.796875 134.675781 25.65625 135.371094 25.371094 C 136.066406 25.089844 136.609375 24.695312 137.003906 24.1875 C 137.394531 23.679688 137.589844 23.085938 137.589844 22.40625 C 137.589844 21.664062 137.347656 21.0625 136.859375 20.601562 C 136.367188 20.140625 135.621094 19.8125 134.609375 19.613281 L 132.742188 19.238281 C 132.273438 19.144531 131.9375 19.011719 131.734375 18.832031 C 131.527344 18.65625 131.425781 18.4375 131.425781 18.171875 C 131.425781 17.863281 131.574219 17.609375 131.878906 17.414062 C 132.179688 17.214844 132.566406 17.117188 133.03125 17.117188 C 133.535156 17.117188 133.941406 17.234375 134.242188 17.46875 C 134.542969 17.703125 134.738281 18 134.824219 18.371094 L 137.320312 18.023438 C 137.222656 17.433594 136.984375 16.917969 136.613281 16.484375 C 136.246094 16.046875 135.753906 15.710938 135.144531 15.472656 C 134.53125 15.238281 133.808594 15.117188 132.976562 15.117188 C 132.105469 15.117188 131.34375 15.25 130.691406 15.511719 C 130.042969 15.773438 129.535156 16.144531 129.179688 16.625 C 128.820312 17.101562 128.640625 17.667969 128.640625 18.324219 C 128.640625 19.101562 128.890625 19.738281 129.386719 20.230469 C 129.886719 20.722656 130.632812 21.070312 131.628906 21.277344 L 133.414062 21.628906 C 133.859375 21.722656 134.1875 21.855469 134.410156 22.027344 C 134.632812 22.199219 134.742188 22.417969 134.742188 22.6875 C 134.742188 23 134.589844 23.253906 134.285156 23.457031 "/><path style=" stroke:none;fill-rule:nonzero;fill:#ffffff;fill-opacity:1;" d="M 124.042969 25.582031 L 126.824219 25.582031 L 126.824219 15.269531 L 124.042969 15.269531 L 124.042969 25.582031 "/><path style=" stroke:none;fill-rule:nonzero;fill:#ffffff;fill-opacity:1;" d="M 111.59375 19.097656 C 111.425781 19.210938 111.160156 19.292969 110.792969 19.347656 C 110.421875 19.398438 109.9375 19.457031 109.332031 19.519531 C 108.816406 19.570312 108.320312 19.65625 107.851562 19.777344 C 107.382812 19.898438 106.964844 20.078125 106.59375 20.3125 C 106.226562 20.550781 105.9375 20.863281 105.726562 21.246094 C 105.515625 21.632812 105.410156 22.117188 105.410156 22.695312 C 105.410156 23.375 105.558594 23.941406 105.855469 24.398438 C 106.15625 24.859375 106.566406 25.203125 107.089844 25.433594 C 107.613281 25.664062 108.207031 25.777344 108.867188 25.777344 C 109.382812 25.777344 109.835938 25.710938 110.222656 25.574219 C 110.605469 25.4375 110.9375 25.246094 111.214844 25 C 111.492188 24.753906 111.714844 24.46875 111.882812 24.144531 L 111.96875 24.144531 L 111.96875 25.582031 L 114.632812 25.582031 L 114.632812 18.621094 C 114.632812 18.011719 114.511719 17.488281 114.28125 17.046875 C 114.046875 16.609375 113.722656 16.246094 113.3125 15.960938 C 112.902344 15.671875 112.433594 15.460938 111.90625 15.324219 C 111.378906 15.1875 110.824219 15.117188 110.238281 15.117188 C 109.4375 15.117188 108.71875 15.234375 108.089844 15.46875 C 107.460938 15.703125 106.945312 16.039062 106.539062 16.484375 C 106.136719 16.925781 105.859375 17.457031 105.71875 18.082031 L 108.285156 18.40625 C 108.355469 18.175781 108.472656 17.96875 108.636719 17.785156 C 108.800781 17.601562 109.015625 17.457031 109.28125 17.347656 C 109.546875 17.238281 109.855469 17.183594 110.210938 17.183594 C 110.5625 17.183594 110.855469 17.238281 111.097656 17.347656 C 111.34375 17.457031 111.527344 17.613281 111.65625 17.8125 C 111.78125 18.015625 111.847656 18.261719 111.847656 18.546875 L 111.847656 18.59375 C 111.847656 18.816406 111.761719 18.988281 111.59375 19.097656 Z M 111.867188 20.78125 L 111.867188 21.875 C 111.867188 22.242188 111.769531 22.570312 111.585938 22.863281 C 111.398438 23.15625 111.140625 23.390625 110.808594 23.566406 C 110.480469 23.738281 110.09375 23.824219 109.648438 23.824219 C 109.34375 23.824219 109.078125 23.777344 108.84375 23.6875 C 108.609375 23.59375 108.425781 23.457031 108.292969 23.277344 C 108.15625 23.09375 108.089844 22.875 108.089844 22.609375 C 108.089844 22.335938 108.160156 22.109375 108.304688 21.925781 C 108.449219 21.742188 108.652344 21.59375 108.914062 21.484375 C 109.175781 21.378906 109.472656 21.296875 109.808594 21.246094 C 109.976562 21.222656 110.164062 21.195312 110.367188 21.164062 C 110.566406 21.132812 110.769531 21.097656 110.96875 21.0625 C 111.167969 21.023438 111.347656 20.980469 111.503906 20.929688 C 111.664062 20.878906 111.785156 20.828125 111.867188 20.78125 "/><path style=" stroke:none;fill-rule:nonzero;fill:#ffffff;fill-opacity:1;" d="M 96.933594 20.984375 L 99.464844 20.984375 C 100.53125 20.984375 101.4375 20.789062 102.191406 20.398438 C 102.945312 20.003906 103.523438 19.460938 103.925781 18.761719 C 104.328125 18.066406 104.527344 17.253906 104.527344 16.332031 C 104.527344 15.410156 104.332031 14.601562 103.933594 13.898438 C 103.539062 13.199219 102.96875 12.652344 102.21875 12.253906 C 101.472656 11.859375 100.570312 11.664062 99.519531 11.664062 L 94.074219 11.664062 L 94.074219 25.582031 L 96.933594 25.582031 Z M 99.070312 14.023438 C 99.636719 14.023438 100.109375 14.121094 100.488281 14.316406 C 100.863281 14.507812 101.144531 14.777344 101.332031 15.117188 C 101.519531 15.460938 101.613281 15.867188 101.613281 16.332031 C 101.613281 16.792969 101.519531 17.199219 101.332031 17.546875 C 101.144531 17.894531 100.863281 18.167969 100.488281 18.367188 C 100.109375 18.5625 99.640625 18.660156 99.082031 18.660156 L 96.933594 18.660156 L 96.933594 14.023438 L 99.070312 14.023438 "/><path style=" stroke:none;fill-rule:nonzero;fill:#ffffff;fill-opacity:1;" d="M 125.433594 13.929688 C 125.863281 13.929688 126.226562 13.792969 126.527344 13.511719 C 126.824219 13.230469 126.976562 12.890625 126.976562 12.484375 C 126.976562 12.078125 126.824219 11.738281 126.527344 11.457031 C 126.226562 11.175781 125.859375 11.035156 125.425781 11.035156 C 125 11.035156 124.636719 11.175781 124.335938 11.457031 C 124.035156 11.738281 123.882812 12.078125 123.882812 12.484375 C 123.882812 12.890625 124.035156 13.230469 124.335938 13.511719 C 124.636719 13.792969 125.003906 13.929688 125.433594 13.929688 "/><path style=" stroke:none;fill-rule:nonzero;fill:#ffffff;fill-opacity:1;" d="M 119.484375 19.769531 C 119.484375 19.324219 119.578125 18.933594 119.765625 18.601562 C 119.953125 18.273438 120.214844 18.019531 120.546875 17.835938 C 120.878906 17.65625 121.25 17.566406 121.664062 17.566406 C 121.878906 17.566406 122.105469 17.578125 122.339844 17.597656 C 122.574219 17.621094 122.75 17.648438 122.867188 17.6875 L 122.867188 15.222656 C 122.75 15.195312 122.609375 15.175781 122.445312 15.164062 C 122.285156 15.152344 122.128906 15.148438 121.980469 15.148438 C 121.382812 15.148438 120.863281 15.308594 120.429688 15.628906 C 119.992188 15.949219 119.679688 16.421875 119.496094 17.050781 L 119.402344 17.050781 L 119.402344 15.269531 L 116.703125 15.269531 L 116.703125 25.582031 L 119.484375 25.582031 L 119.484375 19.769531 "/></g></svg>